<svg height="16" viewBox="0 0 16 16" width="16" xmlns="http://www.w3.org/2000/svg">
<path d="m 9,1 0.564,2.258 0.69,0.28 1.988,-1.194 1.414,1.414 L 12.46,5.752 12.746,6.436 15,7 V 9 H 9.75 C 10.487539,7.6669775 9.5234194,6.0317774 8,6.0317774 6.4765806,6.0317774 5.5124609,7.6669775 6.25,9 H 1 V 7 L 3.26,6.436 3.538,5.748 2.344,3.758 3.758,2.344 5.752,3.54 6.438,3.254 7,1 Z" fill="#e0e0e0"/>
<path d="m 3,10 h 2 c 3.599998,0 3.599998,4.5 0,4.5 V 16 H 3 Z m 2,3 c 1.333333,0 1.333333,-1.5 0,-1.5 z" fill="#e0e0e0"/>
<path d="M 8.2,10 H 10 c 0,1 0.339974,2 1,2 0.660026,0 1,-1 1,-2 h 1.8 c 0,2 -0.55166,3 -1.8,3.579264 V 16 H 10 V 13.579264 C 8.7452681,13 8.2,12 8.2,10 Z" fill="#e0e0e0"/>
</svg>
